<?xml version="1.0" encoding="UTF-8"?>
<svg width="944px" height="944px" viewBox="0 0 944 944" version="1.1" xmlns="http://www.w3.org/2000/svg" xmlns:xlink="http://www.w3.org/1999/xlink">
    <!-- Generator: Sketch 50.2 (55047) - http://www.bohemiancoding.com/sketch -->
    <title>GenyMan</title>
    <desc>Created with Sketch.</desc>
    <defs></defs>
    <g id="Page-1" stroke="none" stroke-width="1" fill="none" fill-rule="evenodd">
        <g id="GenyMan" fill-rule="nonzero">
            <g id="technology">
                <path d="M877.145513,373.1455 C867.080228,331.769906 850.826589,292.533062 828.651652,256.07475 L868.214759,200.627656 L743.954076,76.2316875 L688.59593,115.815156 C652.233823,93.6311562 613.099848,77.3600625 571.825734,67.2618437 L560.629601,0 L472.506329,0 L362,472 L472.506329,944 L560.113905,944 L571.289778,876.869063 C612.569418,866.829844 651.727335,850.608531 688.120753,828.470625 L743.589405,868.135219 L867.850089,743.742938 L828.366177,688.404625 C850.589,651.977656 866.892367,612.762938 877.016589,571.392875 L944,560.21975 L944,384.300188 L877.145513,373.1455 Z" id="Shape" fill="#35A0CD"></path>
                <path d="M384.298344,0 L373.088344,67.26 C331.854719,77.3360938 292.735875,93.5721563 256.390031,115.697156 L200.625812,75.8647813 L76.2316875,200.258906 L116.040094,255.989938 C93.9298437,292.284156 77.6937812,331.338469 67.5955625,372.516781 L0,383.78025 L0,559.699813 L67.4646563,570.944844 C77.5057188,612.130531 93.6938438,651.210656 115.754313,687.528844 L75.866625,743.372344 L200.26075,867.768312 L255.9125,828.017062 C292.230688,850.188156 331.325563,866.474 372.551813,876.60725 L383.782094,944 L472,944 L472,0 L384.298344,0 Z" id="Shape" fill="#28789A"></path>
            </g>
            <g id="man-(1)" transform="translate(185.000000, 146.000000)">
                <path d="M573,229 C573,355.331667 444.648,458 286.5,458 C128.352,458 0,355.331667 0,229 C0,102.668333 128.352,0 286.5,0 C444.648,0 573,102.668333 573,229 Z" id="Shape" fill="#5A5A5A"></path>
                <path d="M574,229 C574,355.331667 445.424,458 287,458 L287,0 C445.424,0 574,102.668333 574,229 Z" id="Shape" fill="#444444"></path>
                <path d="M496.333333,458 L458,458 L458,306 L496.333333,306 C538.616278,306 573,340.084733 573,382 C573,423.915267 538.616278,458 496.333333,458 Z" id="Shape" fill="#F6A96C"></path>
                <path d="M115,458 L76.6666667,458 C34.3837222,458 0,423.915267 0,382 C0,340.084733 34.3837222,306 76.6666667,306 L115,306 L115,458 Z" id="Shape" fill="#FFBD86"></path>
                <path d="M459.727273,343.81768 L459.727273,382.022099 L498,420.226519 L498,431.304528 C498,514.590163 451.308548,591.635743 383.181818,628.31326 C377.059458,631.36834 370.934545,593.673312 364.428182,595.965577 C357.923094,598.639887 351.414179,641.683533 344.909091,643.593754 C333.044545,647.033425 320.797273,649.707735 308.165997,650.852594 C301.278182,651.617956 294.389091,652 287.5,652 L287.117273,652 C267.598182,652 248.461818,648.560329 230.090909,643.21171 C224.348724,641.684807 218.226364,599.023204 212.484179,596.730939 C205.595088,594.05663 198.705997,631.750384 191.818182,628.31326 C175.744912,619.907014 160.050542,607.426903 145.890909,594.820718 C102.26,555.086848 77,498.544307 77,439.328729 L77,420.226519 L115.272727,382.022099 L115.272727,343.81768 L77,305.61326 L77,275.430494 C77,228.822376 114.89,191 161.584003,191 L183.780909,191 C206.363094,191 227.795821,199.785743 243.486364,215.831599 C252.290367,224.237845 263.770909,229.20442 276.402185,229.20442 L298.599091,229.20442 C311.230367,229.20442 322.710909,224.237845 331.514912,215.831599 C347.205455,199.785743 368.638182,191 391.220367,191 L413.417273,191 C460.11,191 498,228.822376 498,275.430494 L498,305.61326 L459.727273,343.81768 Z" id="Shape" fill="#FED2A4"></path>
                <path d="M458.818182,343.81768 L458.818182,382.022099 L497,420.226519 L497,431.304528 C497,514.590163 450.419455,591.635743 382.454545,628.31326 C376.346727,631.36834 370.236364,593.673312 363.745455,595.965577 C357.255818,598.639887 350.762364,641.683533 344.272727,643.593754 C332.436364,647.033425 320.218182,649.707735 307.616909,650.852594 C300.745455,651.617956 293.872727,652 287,652 L287,229.20442 L298.071455,229.20442 C310.672727,229.20442 322.126,224.237845 330.909091,215.831599 C346.563636,199.785743 367.945455,191 390.474,191 L412.618182,191 C459.2,191 497,228.822376 497,275.430494 L497,305.61326 L458.818182,343.81768 Z" id="Shape" fill="#FFBD86"></path>
                <path d="M382,507.505251 L382,628.650417 C369.776,634.789483 357.168727,640.163564 343.8,644 L343.8,523.623656 L316.676727,496.377155 L256.322,496.377155 L229.2,523.623656 L229.2,643.616228 C215.831273,639.779792 203.224,634.790762 191,628.650417 L191,507.505251 L240.276727,458 L332.722,458 L382,507.505251 Z" id="Shape" fill="#5A5A5A"></path>
                <g id="Group" transform="translate(229.000000, 344.000000)" fill="#444444">
                    <path d="M152,163.600424 L152,283.983051 C139.84,290.083475 127.298733,295.423729 114,299.236017 L114,179.617373 L87.0187333,152.542373 L57,152.542373 L57,114.40678 L102.981267,114.40678 L152,163.600424 Z" id="Shape"></path>
                    <rect id="Rectangle-path" x="0" y="0" width="114" height="38.1355932"></rect>
                </g>
                <rect id="Rectangle-path" fill="#292929" x="287" y="344" width="57" height="38"></rect>
                <polygon id="Shape" fill="#444444" points="306 421 497 421 497 344.333333 497 306 306 306"></polygon>
                <polygon id="Shape" fill="#35A0CD" points="344 382 459 382 459 344 344 344"></polygon>
                <polygon id="Shape" fill="#5A5A5A" points="268 306 77 306 77 344.333333 77 421 268 421"></polygon>
                <rect id="Rectangle-path" fill="#28789A" x="115" y="344" width="115" height="38"></rect>
            </g>
        </g>
    </g>
</svg>